<?xml version="1.0" encoding="UTF-8" standalone="no"?>
<svg
   xmlns:dc="http://purl.org/dc/elements/1.1/"
   xmlns:cc="http://creativecommons.org/ns#"
   xmlns:rdf="http://www.w3.org/1999/02/22-rdf-syntax-ns#"
   xmlns:svg="http://www.w3.org/2000/svg"
   xmlns="http://www.w3.org/2000/svg"
   xmlns:sodipodi="http://sodipodi.sourceforge.net/DTD/sodipodi-0.dtd"
   xmlns:inkscape="http://www.inkscape.org/namespaces/inkscape"
   inkscape:version="1.0 (4035a4f, 2020-05-01)"
   sodipodi:docname="google-browser-svgrepo-com.svg"
   xml:space="preserve"
   style="enable-background:new 0 0 23.952 23.952;"
   viewBox="0 0 23.952 23.952"
   y="0px"
   x="0px"
   id="Capa_1"
   version="1.1"><metadata
   id="metadata49"><rdf:RDF><cc:Work
       rdf:about=""><dc:format>image/svg+xml</dc:format><dc:type
         rdf:resource="http://purl.org/dc/dcmitype/StillImage" /></cc:Work></rdf:RDF></metadata><defs
   id="defs47" /><sodipodi:namedview
   inkscape:current-layer="Capa_1"
   inkscape:window-maximized="0"
   inkscape:window-y="23"
   inkscape:window-x="0"
   inkscape:cy="3.9542462"
   inkscape:cx="8.4221081"
   inkscape:zoom="17.590683"
   showgrid="false"
   id="namedview45"
   inkscape:window-height="619"
   inkscape:window-width="923"
   inkscape:pageshadow="2"
   inkscape:pageopacity="0"
   guidetolerance="10"
   gridtolerance="10"
   objecttolerance="10"
   borderopacity="1"
   bordercolor="#666666"
   pagecolor="#ffffff" />
<g
   style="fill:#ffffff"
   id="g12">
	<path
   id="path10"
   d="m 18.174,1.157 h -2.116 l 0.709,0.576 c 0.282,0.234 0.547,0.524 0.802,0.871 0.252,0.346 0.468,0.749 0.646,1.205 0.176,0.457 0.266,0.979 0.266,1.566 0,0.562 -0.083,1.064 -0.252,1.5 C 18.064,7.313 17.848,7.707 17.586,8.058 17.324,8.409 17.018,8.723 16.674,9 l -1.06,0.811 c -0.218,0.216 -0.431,0.439 -0.645,0.674 -0.21,0.231 -0.317,0.527 -0.317,0.884 0,0.351 0.125,0.633 0.372,0.84 0.251,0.21 0.479,0.376 0.682,0.504 l 1.223,0.885 c 0.337,0.29 0.653,0.582 0.957,0.878 0.302,0.295 0.574,0.614 0.815,0.957 0.236,0.345 0.427,0.723 0.561,1.136 0.135,0.413 0.199,0.888 0.199,1.426 0,0.75 -0.182,1.481 -0.551,2.188 -0.368,0.709 -0.912,1.346 -1.638,1.909 -0.724,0.564 -1.621,1.015 -2.691,1.353 -1.073,0.338 -2.306,0.507 -3.707,0.507 -1.232,0 -2.302,-0.125 -3.207,-0.378 C 6.759,23.322 6.001,22.987 5.396,22.568 4.791,22.15 4.339,21.673 4.043,21.136 c -0.295,-0.537 -0.44,-1.1 -0.44,-1.691 0,-0.569 0.182,-1.212 0.551,-1.933 0.368,-0.719 1.042,-1.353 2.023,-1.899 0.52,-0.29 1.076,-0.524 1.67,-0.709 0.592,-0.183 1.176,-0.324 1.758,-0.427 0.582,-0.101 1.133,-0.173 1.655,-0.217 0.52,-0.042 0.971,-0.075 1.343,-0.097 -0.231,-0.287 -0.448,-0.592 -0.648,-0.909 -0.195,-0.316 -0.294,-0.726 -0.294,-1.231 0,-0.268 0.033,-0.49 0.099,-0.669 0.065,-0.181 0.137,-0.362 0.221,-0.543 -0.169,0.021 -0.344,0.037 -0.527,0.047 -0.186,0.011 -0.368,0.018 -0.543,0.018 -0.906,0 -1.704,-0.141 -2.398,-0.429 C 7.822,10.164 7.228,9.79 6.743,9.33 6.26,8.868 5.895,8.34 5.655,7.743 5.41,7.148 5.29,6.544 5.29,5.931 5.29,5.203 5.469,4.468 5.815,3.722 6.167,2.974 6.697,2.308 7.409,1.718 8.387,0.968 9.402,0.494 10.46,0.297 11.515,0.1 12.499,0 13.415,0 h 6.935 z m -0.82,18.038 c 0,-0.389 -0.064,-0.744 -0.196,-1.069 -0.131,-0.321 -0.327,-0.633 -0.592,-0.934 -0.265,-0.301 -0.639,-0.619 -1.121,-0.955 -0.483,-0.337 -1.03,-0.719 -1.646,-1.149 -0.127,-0.043 -0.247,-0.067 -0.354,-0.067 H 13.03 c -0.086,0 -0.248,0.007 -0.489,0.016 -0.241,0.011 -0.53,0.035 -0.868,0.071 -0.337,0.038 -0.697,0.089 -1.084,0.152 -0.384,0.065 -0.752,0.148 -1.104,0.256 -0.197,0.064 -0.452,0.163 -0.771,0.296 -0.323,0.131 -0.64,0.324 -0.956,0.573 -0.317,0.249 -0.59,0.568 -0.817,0.95 -0.233,0.383 -0.346,0.845 -0.346,1.389 0,0.562 0.134,1.072 0.405,1.531 0.271,0.457 0.668,0.86 1.185,1.213 0.512,0.35 1.135,0.616 1.865,0.795 0.726,0.181 1.538,0.271 2.433,0.271 1.62,0 2.837,-0.313 3.65,-0.941 0.813,-0.628 1.221,-1.427 1.221,-2.398 z M 14.668,9.079 c 0.381,-0.373 0.615,-0.773 0.697,-1.2 0.083,-0.425 0.124,-0.782 0.124,-1.067 0,-0.564 -0.086,-1.179 -0.255,-1.846 C 15.063,4.302 14.804,3.681 14.46,3.107 14.113,2.531 13.683,2.048 13.171,1.654 12.65,1.257 12.056,1.062 11.374,1.062 10.936,1.062 10.502,1.161 10.076,1.356 9.65,1.553 9.295,1.802 9.021,2.099 8.731,2.43 8.539,2.793 8.435,3.185 8.335,3.581 8.284,3.986 8.284,4.4 c 0,0.521 0.083,1.105 0.244,1.748 0.164,0.646 0.419,1.247 0.768,1.813 0.35,0.563 0.785,1.039 1.3,1.42 0.52,0.385 1.135,0.576 1.854,0.576 0.423,0 0.834,-0.078 1.232,-0.24 0.397,-0.16 0.728,-0.374 0.986,-0.638 z"
   style="fill:#ffffff" />
</g>
<g
   id="g14">
</g>
<g
   id="g16">
</g>
<g
   id="g18">
</g>
<g
   id="g20">
</g>
<g
   id="g22">
</g>
<g
   id="g24">
</g>
<g
   id="g26">
</g>
<g
   id="g28">
</g>
<g
   id="g30">
</g>
<g
   id="g32">
</g>
<g
   id="g34">
</g>
<g
   id="g36">
</g>
<g
   id="g38">
</g>
<g
   id="g40">
</g>
<g
   id="g42">
</g>
</svg>
